<svg xmlns="http://www.w3.org/2000/svg" xmlns:xlink="http://www.w3.org/1999/xlink" width="70" height="75" viewBox="0 0 70 75">
  <defs>
    <filter id="Ellipse_2" x="0.007" y="18.6" width="69.993" height="32" filterUnits="userSpaceOnUse">
      <feOffset dy="3" input="SourceAlpha"/>
      <feGaussianBlur stdDeviation="3" result="blur"/>
      <feFlood flood-opacity="0.161"/>
      <feComposite operator="in" in2="blur"/>
      <feComposite in="SourceGraphic"/>
    </filter>
    <filter id="Union_8" x="0.007" y="30.573" width="69.993" height="32" filterUnits="userSpaceOnUse">
      <feOffset dy="3" input="SourceAlpha"/>
      <feGaussianBlur stdDeviation="3" result="blur-2"/>
      <feFlood flood-opacity="0.161"/>
      <feComposite operator="in" in2="blur-2"/>
      <feComposite in="SourceGraphic"/>
    </filter>
    <filter id="Union_9" x="0" y="44" width="70" height="31" filterUnits="userSpaceOnUse">
      <feOffset dy="3" input="SourceAlpha"/>
      <feGaussianBlur stdDeviation="3" result="blur-3"/>
      <feFlood flood-opacity="0.161"/>
      <feComposite operator="in" in2="blur-3"/>
      <feComposite in="SourceGraphic"/>
    </filter>
  </defs>
  <g id="Group_3" data-name="Group 3" transform="translate(-211.405 -835.39)">
    <g transform="matrix(1, 0, 0, 1, 211.41, 835.39)" filter="url(#Ellipse_2)">
      <g id="Ellipse_2-2" data-name="Ellipse 2" transform="translate(9.01 24.6)" fill="#ff6332" stroke="#ff6332" stroke-width="1">
        <ellipse cx="25.996" cy="7" rx="25.996" ry="7" stroke="none"/>
        <ellipse cx="25.996" cy="7" rx="25.496" ry="6.5" fill="none"/>
      </g>
    </g>
    <g transform="matrix(1, 0, 0, 1, 211.41, 835.39)" filter="url(#Union_8)">
      <g id="Union_8-2" data-name="Union 8" transform="translate(9.01 36.57)" fill="#ff6332">
        <path d="M 25.9964599609375 13.5 C 19.07905960083008 13.5 12.57913970947266 13.07388019561768 7.694049835205078 12.30012989044189 C 5.339789867401123 11.92722988128662 3.49793004989624 11.49551963806152 2.219650030136108 11.01698970794678 C 0.5488599538803101 10.39151000976563 0.5000699758529663 9.932450294494629 0.5000099539756775 9.882169723510742 L 0.5000016093254089 1.623560428619385 C 0.8345680236816406 1.872585892677307 1.254113793373108 2.112218379974365 1.760219931602478 2.344089984893799 C 3.10302996635437 2.95930004119873 5.044010162353516 3.510669946670532 7.529240131378174 3.982870101928711 C 12.47614002227783 4.923409938812256 19.03462028503418 5.441390037536621 25.9964599609375 5.441390037536621 C 32.95946884155273 5.441390037536621 39.51782989501953 4.923669815063477 44.46340942382813 3.983609914779663 C 46.89096069335938 3.522170066833496 48.80467987060547 2.98186993598938 50.15139007568359 2.377710103988647 C 50.69396591186523 2.134298801422119 51.14058685302734 1.882434844970703 51.492919921875 1.620391845703125 L 51.492919921875 9.88131046295166 C 51.49285888671875 9.932450294494629 51.44406890869141 10.39151000976563 49.77328109741211 11.01698970794678 C 48.49499893188477 11.49551963806152 46.65314102172852 11.92722988128662 44.29888153076172 12.30012989044189 C 39.41379165649414 13.07388019561768 32.91387176513672 13.5 25.9964599609375 13.5 Z" stroke="none"/>
        <path d="M 25.9964599609375 13 C 32.47351837158203 13 38.66120147705078 12.61921977996826 43.41965103149414 11.92780017852783 C 49.63485717773438 11.0247106552124 50.82188415527344 9.985671997070313 50.992919921875 9.79314136505127 L 50.992919921875 2.526814937591553 C 50.73580169677734 2.663535356521606 50.50918197631836 2.765201568603516 50.35604858398438 2.833899974822998 C 48.97378158569336 3.454020023345947 47.02262115478516 4.006100177764893 44.55678176879883 4.474810123443604 C 39.58135986328125 5.420549869537354 32.98984146118164 5.941390037536621 25.9964599609375 5.941390037536621 C 19.00424003601074 5.941390037536621 12.41259956359863 5.420279979705811 7.43589973449707 4.474080085754395 C 4.245673656463623 3.867923498153687 2.246068239212036 3.196316957473755 1.000002503395081 2.529684782028198 L 1.000009894371033 9.793140411376953 C 1.171046733856201 9.985671997070313 2.358074188232422 11.0247106552124 8.573280334472656 11.92780017852783 C 13.33172988891602 12.61921977996826 19.51939964294434 13 25.9964599609375 13 M 25.9964599609375 14 C 11.64054012298584 14 0.002849960932508111 12.1563196182251 9.960937859432306e-06 9.882789611816406 L -3.906250256591193e-08 9.882789611816406 L -3.906250256591193e-08 -8.881784197001252e-16 C 0.0008099609403871 1.317059993743896 2.707599878311157 2.557790040969849 7.622570037841797 3.491660118103027 C 12.53835964202881 4.42628002166748 19.06369018554688 4.941390037536621 25.9964599609375 4.941390037536621 C 40.33073043823242 4.941390037536621 51.992919921875 2.724550008773804 51.992919921875 -8.881784197001252e-16 L 51.992919921875 9.88131046295166 L 51.992919921875 9.882049560546875 L 51.992919921875 9.882789611816406 L 51.9929084777832 9.882789611816406 C 51.99008178710938 12.1563196182251 40.35239028930664 14 25.9964599609375 14 Z" stroke="none" fill="#ff6332"/>
      </g>
    </g>
    <g transform="matrix(1, 0, 0, 1, 211.41, 835.39)" filter="url(#Union_9)">
      <g id="Union_9-2" data-name="Union 9" transform="translate(9 50)" fill="#ff6332">
        <path d="M 26 12.5 C 19.07986068725586 12.5 12.57709980010986 12.10416984558105 7.689610004425049 11.38543033599854 C 5.332990169525146 11.03888034820557 3.488970041275024 10.63755035400391 2.20878005027771 10.19258975982666 C 0.8074600100517273 9.705530166625977 0.5001699924468994 9.293769836425781 0.5000100135803223 9.176210403442383 L 0.5000016689300537 1.535107493400574 C 0.8373976945877075 1.770965576171875 1.261168122291565 1.996940493583679 1.773030042648315 2.214669942855835 C 3.114259958267212 2.78518009185791 5.053450107574463 3.296580076217651 7.536749839782715 3.734659910202026 C 12.48231029510498 4.607649803161621 19.03936958312988 5.08843994140625 26 5.08843994140625 C 32.96181106567383 5.08843994140625 39.51876068115234 4.607900142669678 44.46297836303711 3.735340118408203 C 46.88864898681641 3.307250022888184 48.80062866210938 2.80610990524292 50.14577865600586 2.245820045471191 C 50.6941032409668 2.017436265945435 51.14491653442383 1.78007435798645 51.5 1.53202748298645 L 51.5 9.17549991607666 C 51.49983978271484 9.293769836425781 51.19255065917969 9.705530166625977 49.79122161865234 10.19258975982666 C 48.51102828979492 10.63755035400391 46.66701889038086 11.03888034820557 44.31039047241211 11.38543033599854 C 39.42290115356445 12.10416984558105 32.92013931274414 12.5 26 12.5 Z" stroke="none"/>
        <path d="M 26 12 C 32.43675994873047 12 38.59733963012695 11.65040969848633 43.34690856933594 11.01562976837158 C 49.42105484008789 10.20382213592529 50.76594543457031 9.257530212402344 51 9.043290138244629 L 51 2.400770425796509 C 49.75199127197266 3.031192779541016 47.74800109863281 3.663320064544678 44.54988098144531 4.227729797363281 C 39.57785034179688 5.105199813842773 32.99005126953125 5.58843994140625 26 5.58843994140625 C 19.01112937927246 5.58843994140625 12.42319965362549 5.104949951171875 7.449880123138428 4.227049827575684 C 4.92924976348877 3.782390117645264 2.953429937362671 3.260119915008545 1.577319979667664 2.67477011680603 C 1.43668794631958 2.614950656890869 1.232632279396057 2.528151988983154 1.00000262260437 2.412237167358398 L 1.000009894371033 9.043290138244629 C 1.234064817428589 9.257532119750977 2.578953504562378 10.20383262634277 8.65310001373291 11.01564025878906 C 13.40266036987305 11.65040969848633 19.56324005126953 12 26 12 M 26 13 C 11.64212036132813 13 0.002850000048056245 11.28800964355469 9.999999747378752e-06 9.1768798828125 L -3.552713678800501e-15 9.1768798828125 L -3.552713678800501e-15 -8.881784197001252e-16 C 0.0008099999977275729 1.222990036010742 2.707969903945923 2.375089883804321 7.623610019683838 3.242259979248047 C 12.54006958007813 4.110119819641113 19.0662899017334 4.58843994140625 26 4.58843994140625 C 40.33621978759766 4.58843994140625 52 2.529939889907837 52 -8.881784197001252e-16 L 52 9.17549991607666 L 52 9.176190376281738 L 52 9.1768798828125 L 51.9999885559082 9.1768798828125 C 51.99715042114258 11.28800964355469 40.35787963867188 13 26 13 Z" stroke="none" fill="#ff6332"/>
      </g>
    </g>
    <text id="_" data-name="£" transform="translate(236.405 835.39)" fill="#ff6332" font-size="18" font-family="SegoeUI-Bold, Segoe UI" font-weight="700"><tspan x="0" y="19">£</tspan></text>
  </g>
</svg>
