<svg xmlns="http://www.w3.org/2000/svg" xmlns:xlink="http://www.w3.org/1999/xlink" width="45" height="387.5" viewBox="0 0 45 387.5">
  <defs>
    <clipPath id="clip-path">
      <rect width="45" height="387.5" fill="none"/>
    </clipPath>
    <radialGradient id="radial-gradient" cx="0.5" cy="0.5" r="0.5" gradientUnits="objectBoundingBox">
      <stop offset="0" stop-color="#fff"/>
      <stop offset="1" stop-color="gray"/>
    </radialGradient>
  </defs>
  <g id="Repeat_Grid_11" data-name="Repeat Grid 11" clip-path="url(#clip-path)">
    <g transform="translate(-1068 -590)">
      <g id="Subtraction_7" data-name="Subtraction 7" transform="translate(3754 652)" fill="url(#radial-gradient)">
        <path d="M -2682.358154296875 -54.03398132324219 C -2684.357421875 -54.80901336669922 -2685.499755859375 -55.70363235473633 -2685.499755859375 -56.50020217895508 C -2685.499755859375 -57.18477249145508 -2684.672607421875 -57.80560302734375 -2683.97900390625 -58.20588302612305 C -2682.88525390625 -58.83691024780273 -2681.305419921875 -59.407470703125 -2679.283447265625 -59.90171051025391 C -2675.066650390625 -60.93245315551758 -2669.461181640625 -61.5001106262207 -2663.499755859375 -61.5001106262207 C -2657.538330078125 -61.5001106262207 -2651.932861328125 -60.93245315551758 -2647.716064453125 -59.90171051025391 C -2645.694091796875 -59.407470703125 -2644.1142578125 -58.83691024780273 -2643.0205078125 -58.20588302612305 C -2642.326904296875 -57.80560302734375 -2641.499755859375 -57.18477249145508 -2641.499755859375 -56.50020217895508 C -2641.499755859375 -55.70346832275391 -2642.641845703125 -54.80897521972656 -2644.641357421875 -54.03418350219727 C -2648.890380859375 -55.57964324951172 -2655.91552734375 -56.49980163574219 -2663.499755859375 -56.49980163574219 C -2671.084228515625 -56.49980163574219 -2678.109619140625 -55.57952880859375 -2682.358154296875 -54.03398132324219 Z" stroke="none"/>
        <path d="M -2682.349853515625 -54.56809997558594 C -2678.0322265625 -56.09382629394531 -2671.03369140625 -56.99980163574219 -2663.499755859375 -56.99980163574219 C -2655.966064453125 -56.99980163574219 -2648.967529296875 -56.09393310546875 -2644.649658203125 -54.56829071044922 C -2642.568359375 -55.40271759033203 -2641.999755859375 -56.16747283935547 -2641.999755859375 -56.50020217895508 C -2641.999755859375 -57.015380859375 -2643.21923828125 -58.28779983520508 -2647.834716796875 -59.41601181030273 C -2652.013916015625 -60.43753051757813 -2657.5771484375 -61.0001106262207 -2663.499755859375 -61.0001106262207 C -2669.42236328125 -61.0001106262207 -2674.985595703125 -60.43753051757813 -2679.164794921875 -59.41601181030273 C -2683.7802734375 -58.28779983520508 -2684.999755859375 -57.015380859375 -2684.999755859375 -56.50020217895508 C -2684.999755859375 -56.16754913330078 -2684.43115234375 -55.40278625488281 -2682.349853515625 -54.56809997558594 M -2682.36083984375 -53.49991226196289 L -2682.361083984375 -53.50004196166992 C -2684.741455078125 -54.39274215698242 -2685.999755859375 -55.43019104003906 -2685.999755859375 -56.50020217895508 C -2685.999755859375 -59.53287124633789 -2675.90625 -62.0001106262207 -2663.499755859375 -62.0001106262207 C -2651.09326171875 -62.0001106262207 -2640.999755859375 -59.53287124633789 -2640.999755859375 -56.50020217895508 C -2640.999755859375 -55.43001174926758 -2642.258056640625 -54.39262008666992 -2644.638671875 -53.50017166137695 C -2648.814453125 -55.06536102294922 -2655.864990234375 -55.99980163574219 -2663.499755859375 -55.99980163574219 C -2671.134521484375 -55.99980163574219 -2678.185302734375 -55.06531143188477 -2682.360595703125 -53.50004196166992 L -2682.36083984375 -53.49991226196289 Z" stroke="none" fill="#707070"/>
      </g>
      <g id="Subtraction_8" data-name="Subtraction 8" transform="translate(3754 662)" fill="url(#radial-gradient)">
        <path d="M -2682.358154296875 -54.03398132324219 C -2684.357421875 -54.80901336669922 -2685.499755859375 -55.70363235473633 -2685.499755859375 -56.50020217895508 C -2685.499755859375 -57.18477249145508 -2684.672607421875 -57.80560302734375 -2683.97900390625 -58.20588302612305 C -2682.88525390625 -58.83691024780273 -2681.305419921875 -59.407470703125 -2679.283447265625 -59.90171051025391 C -2675.066650390625 -60.93245315551758 -2669.461181640625 -61.5001106262207 -2663.499755859375 -61.5001106262207 C -2657.538330078125 -61.5001106262207 -2651.932861328125 -60.93245315551758 -2647.716064453125 -59.90171051025391 C -2645.694091796875 -59.407470703125 -2644.1142578125 -58.83691024780273 -2643.0205078125 -58.20588302612305 C -2642.326904296875 -57.80560302734375 -2641.499755859375 -57.18477249145508 -2641.499755859375 -56.50020217895508 C -2641.499755859375 -55.70346832275391 -2642.641845703125 -54.80897521972656 -2644.641357421875 -54.03418350219727 C -2648.890380859375 -55.57964324951172 -2655.91552734375 -56.49980163574219 -2663.499755859375 -56.49980163574219 C -2671.084228515625 -56.49980163574219 -2678.109619140625 -55.57952880859375 -2682.358154296875 -54.03398132324219 Z" stroke="none"/>
        <path d="M -2682.349853515625 -54.56809997558594 C -2678.0322265625 -56.09382629394531 -2671.03369140625 -56.99980163574219 -2663.499755859375 -56.99980163574219 C -2655.966064453125 -56.99980163574219 -2648.967529296875 -56.09393310546875 -2644.649658203125 -54.56829071044922 C -2642.568359375 -55.40271759033203 -2641.999755859375 -56.16747283935547 -2641.999755859375 -56.50020217895508 C -2641.999755859375 -57.015380859375 -2643.21923828125 -58.28779983520508 -2647.834716796875 -59.41601181030273 C -2652.013916015625 -60.43753051757813 -2657.5771484375 -61.0001106262207 -2663.499755859375 -61.0001106262207 C -2669.42236328125 -61.0001106262207 -2674.985595703125 -60.43753051757813 -2679.164794921875 -59.41601181030273 C -2683.7802734375 -58.28779983520508 -2684.999755859375 -57.015380859375 -2684.999755859375 -56.50020217895508 C -2684.999755859375 -56.16754913330078 -2684.43115234375 -55.40278625488281 -2682.349853515625 -54.56809997558594 M -2682.36083984375 -53.49991226196289 L -2682.361083984375 -53.50004196166992 C -2684.741455078125 -54.39274215698242 -2685.999755859375 -55.43019104003906 -2685.999755859375 -56.50020217895508 C -2685.999755859375 -59.53287124633789 -2675.90625 -62.0001106262207 -2663.499755859375 -62.0001106262207 C -2651.09326171875 -62.0001106262207 -2640.999755859375 -59.53287124633789 -2640.999755859375 -56.50020217895508 C -2640.999755859375 -55.43001174926758 -2642.258056640625 -54.39262008666992 -2644.638671875 -53.50017166137695 C -2648.814453125 -55.06536102294922 -2655.864990234375 -55.99980163574219 -2663.499755859375 -55.99980163574219 C -2671.134521484375 -55.99980163574219 -2678.185302734375 -55.06531143188477 -2682.360595703125 -53.50004196166992 L -2682.36083984375 -53.49991226196289 Z" stroke="none" fill="#707070"/>
      </g>
    </g>
    <g transform="translate(-1068 -485)">
      <g id="Subtraction_7-2" data-name="Subtraction 7" transform="translate(3754 652)" fill="url(#radial-gradient)">
        <path d="M -2682.358154296875 -54.03398132324219 C -2684.357421875 -54.80901336669922 -2685.499755859375 -55.70363235473633 -2685.499755859375 -56.50020217895508 C -2685.499755859375 -57.18477249145508 -2684.672607421875 -57.80560302734375 -2683.97900390625 -58.20588302612305 C -2682.88525390625 -58.83691024780273 -2681.305419921875 -59.407470703125 -2679.283447265625 -59.90171051025391 C -2675.066650390625 -60.93245315551758 -2669.461181640625 -61.5001106262207 -2663.499755859375 -61.5001106262207 C -2657.538330078125 -61.5001106262207 -2651.932861328125 -60.93245315551758 -2647.716064453125 -59.90171051025391 C -2645.694091796875 -59.407470703125 -2644.1142578125 -58.83691024780273 -2643.0205078125 -58.20588302612305 C -2642.326904296875 -57.80560302734375 -2641.499755859375 -57.18477249145508 -2641.499755859375 -56.50020217895508 C -2641.499755859375 -55.70346832275391 -2642.641845703125 -54.80897521972656 -2644.641357421875 -54.03418350219727 C -2648.890380859375 -55.57964324951172 -2655.91552734375 -56.49980163574219 -2663.499755859375 -56.49980163574219 C -2671.084228515625 -56.49980163574219 -2678.109619140625 -55.57952880859375 -2682.358154296875 -54.03398132324219 Z" stroke="none"/>
        <path d="M -2682.349853515625 -54.56809997558594 C -2678.0322265625 -56.09382629394531 -2671.03369140625 -56.99980163574219 -2663.499755859375 -56.99980163574219 C -2655.966064453125 -56.99980163574219 -2648.967529296875 -56.09393310546875 -2644.649658203125 -54.56829071044922 C -2642.568359375 -55.40271759033203 -2641.999755859375 -56.16747283935547 -2641.999755859375 -56.50020217895508 C -2641.999755859375 -57.015380859375 -2643.21923828125 -58.28779983520508 -2647.834716796875 -59.41601181030273 C -2652.013916015625 -60.43753051757813 -2657.5771484375 -61.0001106262207 -2663.499755859375 -61.0001106262207 C -2669.42236328125 -61.0001106262207 -2674.985595703125 -60.43753051757813 -2679.164794921875 -59.41601181030273 C -2683.7802734375 -58.28779983520508 -2684.999755859375 -57.015380859375 -2684.999755859375 -56.50020217895508 C -2684.999755859375 -56.16754913330078 -2684.43115234375 -55.40278625488281 -2682.349853515625 -54.56809997558594 M -2682.36083984375 -53.49991226196289 L -2682.361083984375 -53.50004196166992 C -2684.741455078125 -54.39274215698242 -2685.999755859375 -55.43019104003906 -2685.999755859375 -56.50020217895508 C -2685.999755859375 -59.53287124633789 -2675.90625 -62.0001106262207 -2663.499755859375 -62.0001106262207 C -2651.09326171875 -62.0001106262207 -2640.999755859375 -59.53287124633789 -2640.999755859375 -56.50020217895508 C -2640.999755859375 -55.43001174926758 -2642.258056640625 -54.39262008666992 -2644.638671875 -53.50017166137695 C -2648.814453125 -55.06536102294922 -2655.864990234375 -55.99980163574219 -2663.499755859375 -55.99980163574219 C -2671.134521484375 -55.99980163574219 -2678.185302734375 -55.06531143188477 -2682.360595703125 -53.50004196166992 L -2682.36083984375 -53.49991226196289 Z" stroke="none" fill="#707070"/>
      </g>
      <g id="Subtraction_8-2" data-name="Subtraction 8" transform="translate(3754 662)" fill="url(#radial-gradient)">
        <path d="M -2682.358154296875 -54.03398132324219 C -2684.357421875 -54.80901336669922 -2685.499755859375 -55.70363235473633 -2685.499755859375 -56.50020217895508 C -2685.499755859375 -57.18477249145508 -2684.672607421875 -57.80560302734375 -2683.97900390625 -58.20588302612305 C -2682.88525390625 -58.83691024780273 -2681.305419921875 -59.407470703125 -2679.283447265625 -59.90171051025391 C -2675.066650390625 -60.93245315551758 -2669.461181640625 -61.5001106262207 -2663.499755859375 -61.5001106262207 C -2657.538330078125 -61.5001106262207 -2651.932861328125 -60.93245315551758 -2647.716064453125 -59.90171051025391 C -2645.694091796875 -59.407470703125 -2644.1142578125 -58.83691024780273 -2643.0205078125 -58.20588302612305 C -2642.326904296875 -57.80560302734375 -2641.499755859375 -57.18477249145508 -2641.499755859375 -56.50020217895508 C -2641.499755859375 -55.70346832275391 -2642.641845703125 -54.80897521972656 -2644.641357421875 -54.03418350219727 C -2648.890380859375 -55.57964324951172 -2655.91552734375 -56.49980163574219 -2663.499755859375 -56.49980163574219 C -2671.084228515625 -56.49980163574219 -2678.109619140625 -55.57952880859375 -2682.358154296875 -54.03398132324219 Z" stroke="none"/>
        <path d="M -2682.349853515625 -54.56809997558594 C -2678.0322265625 -56.09382629394531 -2671.03369140625 -56.99980163574219 -2663.499755859375 -56.99980163574219 C -2655.966064453125 -56.99980163574219 -2648.967529296875 -56.09393310546875 -2644.649658203125 -54.56829071044922 C -2642.568359375 -55.40271759033203 -2641.999755859375 -56.16747283935547 -2641.999755859375 -56.50020217895508 C -2641.999755859375 -57.015380859375 -2643.21923828125 -58.28779983520508 -2647.834716796875 -59.41601181030273 C -2652.013916015625 -60.43753051757813 -2657.5771484375 -61.0001106262207 -2663.499755859375 -61.0001106262207 C -2669.42236328125 -61.0001106262207 -2674.985595703125 -60.43753051757813 -2679.164794921875 -59.41601181030273 C -2683.7802734375 -58.28779983520508 -2684.999755859375 -57.015380859375 -2684.999755859375 -56.50020217895508 C -2684.999755859375 -56.16754913330078 -2684.43115234375 -55.40278625488281 -2682.349853515625 -54.56809997558594 M -2682.36083984375 -53.49991226196289 L -2682.361083984375 -53.50004196166992 C -2684.741455078125 -54.39274215698242 -2685.999755859375 -55.43019104003906 -2685.999755859375 -56.50020217895508 C -2685.999755859375 -59.53287124633789 -2675.90625 -62.0001106262207 -2663.499755859375 -62.0001106262207 C -2651.09326171875 -62.0001106262207 -2640.999755859375 -59.53287124633789 -2640.999755859375 -56.50020217895508 C -2640.999755859375 -55.43001174926758 -2642.258056640625 -54.39262008666992 -2644.638671875 -53.50017166137695 C -2648.814453125 -55.06536102294922 -2655.864990234375 -55.99980163574219 -2663.499755859375 -55.99980163574219 C -2671.134521484375 -55.99980163574219 -2678.185302734375 -55.06531143188477 -2682.360595703125 -53.50004196166992 L -2682.36083984375 -53.49991226196289 Z" stroke="none" fill="#707070"/>
      </g>
    </g>
    <g transform="translate(-1068 -380)">
      <g id="Subtraction_7-3" data-name="Subtraction 7" transform="translate(3754 652)" fill="url(#radial-gradient)">
        <path d="M -2682.358154296875 -54.03398132324219 C -2684.357421875 -54.80901336669922 -2685.499755859375 -55.70363235473633 -2685.499755859375 -56.50020217895508 C -2685.499755859375 -57.18477249145508 -2684.672607421875 -57.80560302734375 -2683.97900390625 -58.20588302612305 C -2682.88525390625 -58.83691024780273 -2681.305419921875 -59.407470703125 -2679.283447265625 -59.90171051025391 C -2675.066650390625 -60.93245315551758 -2669.461181640625 -61.5001106262207 -2663.499755859375 -61.5001106262207 C -2657.538330078125 -61.5001106262207 -2651.932861328125 -60.93245315551758 -2647.716064453125 -59.90171051025391 C -2645.694091796875 -59.407470703125 -2644.1142578125 -58.83691024780273 -2643.0205078125 -58.20588302612305 C -2642.326904296875 -57.80560302734375 -2641.499755859375 -57.18477249145508 -2641.499755859375 -56.50020217895508 C -2641.499755859375 -55.70346832275391 -2642.641845703125 -54.80897521972656 -2644.641357421875 -54.03418350219727 C -2648.890380859375 -55.57964324951172 -2655.91552734375 -56.49980163574219 -2663.499755859375 -56.49980163574219 C -2671.084228515625 -56.49980163574219 -2678.109619140625 -55.57952880859375 -2682.358154296875 -54.03398132324219 Z" stroke="none"/>
        <path d="M -2682.349853515625 -54.56809997558594 C -2678.0322265625 -56.09382629394531 -2671.03369140625 -56.99980163574219 -2663.499755859375 -56.99980163574219 C -2655.966064453125 -56.99980163574219 -2648.967529296875 -56.09393310546875 -2644.649658203125 -54.56829071044922 C -2642.568359375 -55.40271759033203 -2641.999755859375 -56.16747283935547 -2641.999755859375 -56.50020217895508 C -2641.999755859375 -57.015380859375 -2643.21923828125 -58.28779983520508 -2647.834716796875 -59.41601181030273 C -2652.013916015625 -60.43753051757813 -2657.5771484375 -61.0001106262207 -2663.499755859375 -61.0001106262207 C -2669.42236328125 -61.0001106262207 -2674.985595703125 -60.43753051757813 -2679.164794921875 -59.41601181030273 C -2683.7802734375 -58.28779983520508 -2684.999755859375 -57.015380859375 -2684.999755859375 -56.50020217895508 C -2684.999755859375 -56.16754913330078 -2684.43115234375 -55.40278625488281 -2682.349853515625 -54.56809997558594 M -2682.36083984375 -53.49991226196289 L -2682.361083984375 -53.50004196166992 C -2684.741455078125 -54.39274215698242 -2685.999755859375 -55.43019104003906 -2685.999755859375 -56.50020217895508 C -2685.999755859375 -59.53287124633789 -2675.90625 -62.0001106262207 -2663.499755859375 -62.0001106262207 C -2651.09326171875 -62.0001106262207 -2640.999755859375 -59.53287124633789 -2640.999755859375 -56.50020217895508 C -2640.999755859375 -55.43001174926758 -2642.258056640625 -54.39262008666992 -2644.638671875 -53.50017166137695 C -2648.814453125 -55.06536102294922 -2655.864990234375 -55.99980163574219 -2663.499755859375 -55.99980163574219 C -2671.134521484375 -55.99980163574219 -2678.185302734375 -55.06531143188477 -2682.360595703125 -53.50004196166992 L -2682.36083984375 -53.49991226196289 Z" stroke="none" fill="#707070"/>
      </g>
      <g id="Subtraction_8-3" data-name="Subtraction 8" transform="translate(3754 662)" fill="url(#radial-gradient)">
        <path d="M -2682.358154296875 -54.03398132324219 C -2684.357421875 -54.80901336669922 -2685.499755859375 -55.70363235473633 -2685.499755859375 -56.50020217895508 C -2685.499755859375 -57.18477249145508 -2684.672607421875 -57.80560302734375 -2683.97900390625 -58.20588302612305 C -2682.88525390625 -58.83691024780273 -2681.305419921875 -59.407470703125 -2679.283447265625 -59.90171051025391 C -2675.066650390625 -60.93245315551758 -2669.461181640625 -61.5001106262207 -2663.499755859375 -61.5001106262207 C -2657.538330078125 -61.5001106262207 -2651.932861328125 -60.93245315551758 -2647.716064453125 -59.90171051025391 C -2645.694091796875 -59.407470703125 -2644.1142578125 -58.83691024780273 -2643.0205078125 -58.20588302612305 C -2642.326904296875 -57.80560302734375 -2641.499755859375 -57.18477249145508 -2641.499755859375 -56.50020217895508 C -2641.499755859375 -55.70346832275391 -2642.641845703125 -54.80897521972656 -2644.641357421875 -54.03418350219727 C -2648.890380859375 -55.57964324951172 -2655.91552734375 -56.49980163574219 -2663.499755859375 -56.49980163574219 C -2671.084228515625 -56.49980163574219 -2678.109619140625 -55.57952880859375 -2682.358154296875 -54.03398132324219 Z" stroke="none"/>
        <path d="M -2682.349853515625 -54.56809997558594 C -2678.0322265625 -56.09382629394531 -2671.03369140625 -56.99980163574219 -2663.499755859375 -56.99980163574219 C -2655.966064453125 -56.99980163574219 -2648.967529296875 -56.09393310546875 -2644.649658203125 -54.56829071044922 C -2642.568359375 -55.40271759033203 -2641.999755859375 -56.16747283935547 -2641.999755859375 -56.50020217895508 C -2641.999755859375 -57.015380859375 -2643.21923828125 -58.28779983520508 -2647.834716796875 -59.41601181030273 C -2652.013916015625 -60.43753051757813 -2657.5771484375 -61.0001106262207 -2663.499755859375 -61.0001106262207 C -2669.42236328125 -61.0001106262207 -2674.985595703125 -60.43753051757813 -2679.164794921875 -59.41601181030273 C -2683.7802734375 -58.28779983520508 -2684.999755859375 -57.015380859375 -2684.999755859375 -56.50020217895508 C -2684.999755859375 -56.16754913330078 -2684.43115234375 -55.40278625488281 -2682.349853515625 -54.56809997558594 M -2682.36083984375 -53.49991226196289 L -2682.361083984375 -53.50004196166992 C -2684.741455078125 -54.39274215698242 -2685.999755859375 -55.43019104003906 -2685.999755859375 -56.50020217895508 C -2685.999755859375 -59.53287124633789 -2675.90625 -62.0001106262207 -2663.499755859375 -62.0001106262207 C -2651.09326171875 -62.0001106262207 -2640.999755859375 -59.53287124633789 -2640.999755859375 -56.50020217895508 C -2640.999755859375 -55.43001174926758 -2642.258056640625 -54.39262008666992 -2644.638671875 -53.50017166137695 C -2648.814453125 -55.06536102294922 -2655.864990234375 -55.99980163574219 -2663.499755859375 -55.99980163574219 C -2671.134521484375 -55.99980163574219 -2678.185302734375 -55.06531143188477 -2682.360595703125 -53.50004196166992 L -2682.36083984375 -53.49991226196289 Z" stroke="none" fill="#707070"/>
      </g>
    </g>
    <g transform="translate(-1068 -275)">
      <g id="Subtraction_7-4" data-name="Subtraction 7" transform="translate(3754 652)" fill="url(#radial-gradient)">
        <path d="M -2682.358154296875 -54.03398132324219 C -2684.357421875 -54.80901336669922 -2685.499755859375 -55.70363235473633 -2685.499755859375 -56.50020217895508 C -2685.499755859375 -57.18477249145508 -2684.672607421875 -57.80560302734375 -2683.97900390625 -58.20588302612305 C -2682.88525390625 -58.83691024780273 -2681.305419921875 -59.407470703125 -2679.283447265625 -59.90171051025391 C -2675.066650390625 -60.93245315551758 -2669.461181640625 -61.5001106262207 -2663.499755859375 -61.5001106262207 C -2657.538330078125 -61.5001106262207 -2651.932861328125 -60.93245315551758 -2647.716064453125 -59.90171051025391 C -2645.694091796875 -59.407470703125 -2644.1142578125 -58.83691024780273 -2643.0205078125 -58.20588302612305 C -2642.326904296875 -57.80560302734375 -2641.499755859375 -57.18477249145508 -2641.499755859375 -56.50020217895508 C -2641.499755859375 -55.70346832275391 -2642.641845703125 -54.80897521972656 -2644.641357421875 -54.03418350219727 C -2648.890380859375 -55.57964324951172 -2655.91552734375 -56.49980163574219 -2663.499755859375 -56.49980163574219 C -2671.084228515625 -56.49980163574219 -2678.109619140625 -55.57952880859375 -2682.358154296875 -54.03398132324219 Z" stroke="none"/>
        <path d="M -2682.349853515625 -54.56809997558594 C -2678.0322265625 -56.09382629394531 -2671.03369140625 -56.99980163574219 -2663.499755859375 -56.99980163574219 C -2655.966064453125 -56.99980163574219 -2648.967529296875 -56.09393310546875 -2644.649658203125 -54.56829071044922 C -2642.568359375 -55.40271759033203 -2641.999755859375 -56.16747283935547 -2641.999755859375 -56.50020217895508 C -2641.999755859375 -57.015380859375 -2643.21923828125 -58.28779983520508 -2647.834716796875 -59.41601181030273 C -2652.013916015625 -60.43753051757813 -2657.5771484375 -61.0001106262207 -2663.499755859375 -61.0001106262207 C -2669.42236328125 -61.0001106262207 -2674.985595703125 -60.43753051757813 -2679.164794921875 -59.41601181030273 C -2683.7802734375 -58.28779983520508 -2684.999755859375 -57.015380859375 -2684.999755859375 -56.50020217895508 C -2684.999755859375 -56.16754913330078 -2684.43115234375 -55.40278625488281 -2682.349853515625 -54.56809997558594 M -2682.36083984375 -53.49991226196289 L -2682.361083984375 -53.50004196166992 C -2684.741455078125 -54.39274215698242 -2685.999755859375 -55.43019104003906 -2685.999755859375 -56.50020217895508 C -2685.999755859375 -59.53287124633789 -2675.90625 -62.0001106262207 -2663.499755859375 -62.0001106262207 C -2651.09326171875 -62.0001106262207 -2640.999755859375 -59.53287124633789 -2640.999755859375 -56.50020217895508 C -2640.999755859375 -55.43001174926758 -2642.258056640625 -54.39262008666992 -2644.638671875 -53.50017166137695 C -2648.814453125 -55.06536102294922 -2655.864990234375 -55.99980163574219 -2663.499755859375 -55.99980163574219 C -2671.134521484375 -55.99980163574219 -2678.185302734375 -55.06531143188477 -2682.360595703125 -53.50004196166992 L -2682.36083984375 -53.49991226196289 Z" stroke="none" fill="#707070"/>
      </g>
      <g id="Subtraction_8-4" data-name="Subtraction 8" transform="translate(3754 662)" fill="url(#radial-gradient)">
        <path d="M -2682.358154296875 -54.03398132324219 C -2684.357421875 -54.80901336669922 -2685.499755859375 -55.70363235473633 -2685.499755859375 -56.50020217895508 C -2685.499755859375 -57.18477249145508 -2684.672607421875 -57.80560302734375 -2683.97900390625 -58.20588302612305 C -2682.88525390625 -58.83691024780273 -2681.305419921875 -59.407470703125 -2679.283447265625 -59.90171051025391 C -2675.066650390625 -60.93245315551758 -2669.461181640625 -61.5001106262207 -2663.499755859375 -61.5001106262207 C -2657.538330078125 -61.5001106262207 -2651.932861328125 -60.93245315551758 -2647.716064453125 -59.90171051025391 C -2645.694091796875 -59.407470703125 -2644.1142578125 -58.83691024780273 -2643.0205078125 -58.20588302612305 C -2642.326904296875 -57.80560302734375 -2641.499755859375 -57.18477249145508 -2641.499755859375 -56.50020217895508 C -2641.499755859375 -55.70346832275391 -2642.641845703125 -54.80897521972656 -2644.641357421875 -54.03418350219727 C -2648.890380859375 -55.57964324951172 -2655.91552734375 -56.49980163574219 -2663.499755859375 -56.49980163574219 C -2671.084228515625 -56.49980163574219 -2678.109619140625 -55.57952880859375 -2682.358154296875 -54.03398132324219 Z" stroke="none"/>
        <path d="M -2682.349853515625 -54.56809997558594 C -2678.0322265625 -56.09382629394531 -2671.03369140625 -56.99980163574219 -2663.499755859375 -56.99980163574219 C -2655.966064453125 -56.99980163574219 -2648.967529296875 -56.09393310546875 -2644.649658203125 -54.56829071044922 C -2642.568359375 -55.40271759033203 -2641.999755859375 -56.16747283935547 -2641.999755859375 -56.50020217895508 C -2641.999755859375 -57.015380859375 -2643.21923828125 -58.28779983520508 -2647.834716796875 -59.41601181030273 C -2652.013916015625 -60.43753051757813 -2657.5771484375 -61.0001106262207 -2663.499755859375 -61.0001106262207 C -2669.42236328125 -61.0001106262207 -2674.985595703125 -60.43753051757813 -2679.164794921875 -59.41601181030273 C -2683.7802734375 -58.28779983520508 -2684.999755859375 -57.015380859375 -2684.999755859375 -56.50020217895508 C -2684.999755859375 -56.16754913330078 -2684.43115234375 -55.40278625488281 -2682.349853515625 -54.56809997558594 M -2682.36083984375 -53.49991226196289 L -2682.361083984375 -53.50004196166992 C -2684.741455078125 -54.39274215698242 -2685.999755859375 -55.43019104003906 -2685.999755859375 -56.50020217895508 C -2685.999755859375 -59.53287124633789 -2675.90625 -62.0001106262207 -2663.499755859375 -62.0001106262207 C -2651.09326171875 -62.0001106262207 -2640.999755859375 -59.53287124633789 -2640.999755859375 -56.50020217895508 C -2640.999755859375 -55.43001174926758 -2642.258056640625 -54.39262008666992 -2644.638671875 -53.50017166137695 C -2648.814453125 -55.06536102294922 -2655.864990234375 -55.99980163574219 -2663.499755859375 -55.99980163574219 C -2671.134521484375 -55.99980163574219 -2678.185302734375 -55.06531143188477 -2682.360595703125 -53.50004196166992 L -2682.36083984375 -53.49991226196289 Z" stroke="none" fill="#707070"/>
      </g>
    </g>
  </g>
</svg>
