<svg xmlns="http://www.w3.org/2000/svg" xmlns:xlink="http://www.w3.org/1999/xlink" width="79.4" height="77.038" viewBox="0 0 79.4 77.038">
  <defs>
    <filter id="Union_11" x="0" y="0" width="79.4" height="77.038" filterUnits="userSpaceOnUse">
      <feOffset dy="3" input="SourceAlpha"/>
      <feGaussianBlur stdDeviation="3" result="blur"/>
      <feFlood flood-color="#ff6332" flood-opacity="0.361"/>
      <feComposite operator="in" in2="blur"/>
      <feComposite in="SourceGraphic"/>
    </filter>
  </defs>
  <g transform="matrix(1, 0, 0, 1, 0, 0)" filter="url(#Union_11)">
    <g id="Union_11-2" data-name="Union 11" transform="matrix(0.6, -0.8, 0.8, 0.6, 45.29, -5.97)" fill="#ff6332">
      <path d="M -33.67350006103516 44.5 L -38.52180099487305 44.5 C -39.34878921508789 44.5 -40.02159881591797 43.82678985595703 -40.02159881591797 42.99930191040039 L -40.02159881591797 30.19950103759766 C -40.02159881591797 29.37251091003418 -39.34878921508789 28.69969940185547 -38.52180099487305 28.69969940185547 L -37.30410003662109 28.69969940185547 L -36.80410003662109 28.69969940185547 L -36.80410003662109 28.19969940185547 L -36.80410003662109 14.90040016174316 L -36.80410003662109 14.40040016174316 L -37.30410003662109 14.40040016174316 L -50.17409896850586 14.40040016174316 L -50.67409896850586 14.40040016174316 L -50.67409896850586 14.90040016174316 L -50.67409896850586 15.70050048828125 C -50.67409896850586 16.52749061584473 -51.34690856933594 17.2003002166748 -52.17390060424805 17.2003002166748 L -53.00009918212891 17.2003002166748 C -53.82709121704102 17.2003002166748 -54.49990081787109 16.52749061584473 -54.49990081787109 15.70050048828125 L -54.49990081787109 -1.999799728393555 C -54.49990081787109 -2.826789617538452 -53.82709121704102 -3.499599695205688 -53.00009918212891 -3.499599695205688 L -52.17390060424805 -3.499599695205688 C -51.34690856933594 -3.499599695205688 -50.67409896850586 -2.826789617538452 -50.67409896850586 -1.999799728393555 L -50.67409896850586 0.1998002678155899 L -50.67409896850586 0.6998002529144287 L -50.17409896850586 0.6998002529144287 L -22.8257999420166 0.6998002529144287 L -22.3257999420166 0.6998002529144287 L -22.3257999420166 0.1998002678155899 L -22.3257999420166 -1.999799728393555 C -22.3257999420166 -2.826789617538452 -21.65299034118652 -3.499599695205688 -20.82600021362305 -3.499599695205688 L -19.99979972839355 -3.499599695205688 C -19.17280960083008 -3.499599695205688 -18.5 -2.826789617538452 -18.5 -1.999799728393555 L -18.5 15.70050048828125 C -18.5 16.52749061584473 -19.17280960083008 17.2003002166748 -19.99979972839355 17.2003002166748 L -20.82600021362305 17.2003002166748 C -21.65299034118652 17.2003002166748 -22.3257999420166 16.52749061584473 -22.3257999420166 15.70050048828125 L -22.3257999420166 14.90040016174316 L -22.3257999420166 14.40040016174316 L -22.8257999420166 14.40040016174316 L -34.08660125732422 14.40040016174316 L -34.58660125732422 14.40040016174316 L -34.58660125732422 14.90040016174316 L -34.58660125732422 28.19969940185547 L -34.58660125732422 28.69969940185547 L -34.08660125732422 28.69969940185547 L -33.67350006103516 28.69969940185547 C -32.84651184082031 28.69969940185547 -32.17370223999023 29.37251091003418 -32.17370223999023 30.19950103759766 L -32.17370223999023 42.99930191040039 C -32.17370223999023 43.82678985595703 -32.84651184082031 44.5 -33.67350006103516 44.5 Z" stroke="none"/>
      <path d="M -33.67350006103516 44 C -33.12221145629883 44 -32.67370223999023 43.55109024047852 -32.67370223999023 42.99930191040039 L -32.67370223999023 30.19950103759766 C -32.67370223999023 29.6482105255127 -33.12221145629883 29.19969940185547 -33.67350006103516 29.19969940185547 L -34.08660125732422 29.19969940185547 L -35.08660125732422 29.19969940185547 L -35.08660125732422 28.19969940185547 L -35.08660125732422 14.90040016174316 L -35.08660125732422 13.90040016174316 L -34.08660125732422 13.90040016174316 L -22.8257999420166 13.90040016174316 L -21.8257999420166 13.90040016174316 L -21.8257999420166 14.90040016174316 L -21.8257999420166 15.70050048828125 C -21.8257999420166 16.25179100036621 -21.37729072570801 16.7003002166748 -20.82600021362305 16.7003002166748 L -19.99979972839355 16.7003002166748 C -19.44851112365723 16.7003002166748 -19 16.25179100036621 -19 15.70050048828125 L -19 -1.999799728393555 C -19 -2.551089763641357 -19.44851112365723 -2.999599695205688 -19.99979972839355 -2.999599695205688 L -20.82600021362305 -2.999599695205688 C -21.37729072570801 -2.999599695205688 -21.8257999420166 -2.551089763641357 -21.8257999420166 -1.999799728393555 L -21.8257999420166 0.1998002678155899 L -21.8257999420166 1.199800252914429 L -22.8257999420166 1.199800252914429 L -50.17409896850586 1.199800252914429 L -51.17409896850586 1.199800252914429 L -51.17409896850586 0.1998002678155899 L -51.17409896850586 -1.999799728393555 C -51.17409896850586 -2.551089763641357 -51.62261199951172 -2.999599695205688 -52.17390060424805 -2.999599695205688 L -53.00009918212891 -2.999599695205688 C -53.5513916015625 -2.999599695205688 -53.99990081787109 -2.551089763641357 -53.99990081787109 -1.999799728393555 L -53.99990081787109 15.70050048828125 C -53.99990081787109 16.25179100036621 -53.5513916015625 16.7003002166748 -53.00009918212891 16.7003002166748 L -52.17390060424805 16.7003002166748 C -51.62261199951172 16.7003002166748 -51.17409896850586 16.25179100036621 -51.17409896850586 15.70050048828125 L -51.17409896850586 14.90040016174316 L -51.17409896850586 13.90040016174316 L -50.17409896850586 13.90040016174316 L -37.30410003662109 13.90040016174316 L -36.30410003662109 13.90040016174316 L -36.30410003662109 14.90040016174316 L -36.30410003662109 28.19969940185547 L -36.30410003662109 29.19969940185547 L -37.30410003662109 29.19969940185547 L -38.52180099487305 29.19969940185547 C -39.07308959960938 29.19969940185547 -39.52159881591797 29.6482105255127 -39.52159881591797 30.19950103759766 L -39.52159881591797 42.99930191040039 C -39.52159881591797 43.55109024047852 -39.07308959960938 44 -38.52180099487305 44 L -33.67350006103516 44 M -33.67350006103516 45 L -38.52180099487305 45 C -39.6260986328125 45 -40.52159881591797 44.10449981689453 -40.52159881591797 42.99930191040039 L -40.52159881591797 30.19950103759766 C -40.52159881591797 29.09519958496094 -39.6260986328125 28.19969940185547 -38.52180099487305 28.19969940185547 L -37.30410003662109 28.19969940185547 L -37.30410003662109 14.90040016174316 L -50.17409896850586 14.90040016174316 L -50.17409896850586 15.70050048828125 C -50.17409896850586 16.80480003356934 -51.06959915161133 17.7003002166748 -52.17390060424805 17.7003002166748 L -53.00009918212891 17.7003002166748 C -54.10440063476563 17.7003002166748 -54.99990081787109 16.80480003356934 -54.99990081787109 15.70050048828125 L -54.99990081787109 -1.999799728393555 C -54.99990081787109 -3.104099750518799 -54.10440063476563 -3.999599695205688 -53.00009918212891 -3.999599695205688 L -52.17390060424805 -3.999599695205688 C -51.06959915161133 -3.999599695205688 -50.17409896850586 -3.104099750518799 -50.17409896850586 -1.999799728393555 L -50.17409896850586 0.1998002678155899 L -22.8257999420166 0.1998002678155899 L -22.8257999420166 -1.999799728393555 C -22.8257999420166 -3.104099750518799 -21.93029975891113 -3.999599695205688 -20.82600021362305 -3.999599695205688 L -19.99979972839355 -3.999599695205688 C -18.89550018310547 -3.999599695205688 -18 -3.104099750518799 -18 -1.999799728393555 L -18 15.70050048828125 C -18 16.80480003356934 -18.89550018310547 17.7003002166748 -19.99979972839355 17.7003002166748 L -20.82600021362305 17.7003002166748 C -21.93029975891113 17.7003002166748 -22.8257999420166 16.80480003356934 -22.8257999420166 15.70050048828125 L -22.8257999420166 14.90040016174316 L -34.08660125732422 14.90040016174316 L -34.08660125732422 28.19969940185547 L -33.67350006103516 28.19969940185547 C -32.56919860839844 28.19969940185547 -31.6737003326416 29.09519958496094 -31.6737003326416 30.19950103759766 L -31.6737003326416 42.99930191040039 C -31.6737003326416 44.10449981689453 -32.56919860839844 45 -33.67350006103516 45 Z" stroke="none" fill="#ff6332"/>
    </g>
  </g>
</svg>
